<svg xmlns="http://www.w3.org/2000/svg" viewBox="0 0 32 32"><title>REGLAZH Final Logo</title><path d="M28.84,5H1.49l-.64-1h26.7A10.21,10.21,0,0,1,28.84,5Z" fill="#fff"/><path d="M23.69,12.2a1.38,1.38,0,0,1-.4,1,1.4,1.4,0,0,1-1,.41H6.74l7.28,12a9.71,9.71,0,0,0,8.29,4.66h4.27l-5.07-8.35a9.7,9.7,0,0,0,9.56-5.51A9.67,9.67,0,0,0,23.69,12.2Z" fill="#3d5680" fill-rule="evenodd"/><path d="M22.31,10.82a1.37,1.37,0,0,1,1.38,1.38,9.7,9.7,0,0,1,7.38,4.16A9.71,9.71,0,0,0,22.31,10.82Z" fill="#1d3351" fill-rule="evenodd"/><path d="M27.67,4.12H1L0,2.51H22.31A9.65,9.65,0,0,1,27.67,4.12Z" fill="#ee2524" fill-rule="evenodd"/><path d="M31.07,16.36a9.7,9.7,0,0,0-8.76-5.54H10.5A9.75,9.75,0,0,1,2.33,6.36L1.42,4.84H28.6a9.68,9.68,0,0,1,2.47,11.52Z" fill="#ee2524" fill-rule="evenodd"/><text transform="translate(-13 28.59)" font-size="12" fill="#fff" font-family="Cambria, Cambria">32</text></svg>