<svg xmlns="http://www.w3.org/2000/svg" viewBox="0 0 16 16"><title>REGLAZH Final Logo-961101</title><path d="M14.42,2.38H.76L.44,1.86H13.78A5.2,5.2,0,0,1,14.42,2.38Z" fill="#fff"/><path d="M11.85,6a.68.68,0,0,1-.69.69H3.38l3.64,6A4.84,4.84,0,0,0,11.16,15h2.13l-2.53-4.17a4.85,4.85,0,0,0,4.78-2.75A4.87,4.87,0,0,0,11.85,6Z" fill="#507494" fill-rule="evenodd"/><path d="M11.16,5.31a.68.68,0,0,1,.69.69,4.87,4.87,0,0,1,3.69,2.08A4.86,4.86,0,0,0,11.16,5.31Z" fill="#1d3351" fill-rule="evenodd"/><path d="M13.84,2H.5L0,1.16H11.16A4.82,4.82,0,0,1,13.84,2Z" fill="#ee2524" fill-rule="evenodd"/><path d="M15.53,8.08a4.84,4.84,0,0,0-4.37-2.77H5.26A4.85,4.85,0,0,1,1.18,3.08L.72,2.32H14.3a5,5,0,0,1,.95,1.09A4.85,4.85,0,0,1,15.53,8.08Z" fill="#ee2524" fill-rule="evenodd"/></svg>