<svg xmlns="http://www.w3.org/2000/svg" viewBox="0 0 155 23.54"><title>REGLAZH Final Logo</title><path d="M68.8,22l-7.66-7.84h1.33a5,5,0,0,1,3.61,1.77l7.51,7.62h-.86A5.5,5.5,0,0,1,68.8,22Z" fill="#3d5680"/><path d="M49.87,16.21h-3c-1.71,0-2.53-.89-3.77-2.1h4.78Z" fill="#3d5680"/><path d="M149.68,14.13a7.12,7.12,0,0,1-1.84,1.52,5,5,0,0,1-2.33.57H130.32a1.81,1.81,0,0,0-1.28.53l-4.64,4.69a7.5,7.5,0,0,1-4.8,2.07H78.43a7.59,7.59,0,0,1-5.23-2.07L66,14.11h1.11a4.71,4.71,0,0,1,3.41,1.37l4,4.13a5.26,5.26,0,0,0,3.22,1.66h42.15a4.62,4.62,0,0,0,3.21-1.5l4.26-4.47a4.71,4.71,0,0,1,3.11-1.18h19.24Z" fill="#3d5680"/><path d="M145.48,18.13l-3.81,3.81a8.36,8.36,0,0,1-4.54,1.6H125.4c0-.63,2-2.11,4.27-2.29h8.26A4.67,4.67,0,0,0,140.5,20l.5-.46a5,5,0,0,1,3.51-1.42Z" fill="#ed2024"/><polygon points="151.34 12.48 150.7 13.1 41.96 13.1 41.31 12.48 151.34 12.48" fill="#3d5680"/><path d="M155,0V5.82a4.88,4.88,0,0,1-1.53,3.56l-.52.49V6.68h-7.21v4.63h-2.05V0h2.05V4.62H153V0Z" fill="#3d5680"/><path d="M63.81,11.31H56.4a3.32,3.32,0,0,1-.93-.15,2.81,2.81,0,0,1-.93-.5,2.66,2.66,0,0,1-.72-.89,2.86,2.86,0,0,1-.29-1.34V1a1.11,1.11,0,0,1,.08-.41,1.19,1.19,0,0,1,.22-.33,1,1,0,0,1,.33-.22A1.07,1.07,0,0,1,54.57,0h9.24V2H55.58V8.43A.84.84,0,0,0,55.8,9a.85.85,0,0,0,.62.22h7.39Zm-.93-4.63H56.4V4.62h6.48Z" fill="#3d5680"/><path d="M82.48,10.27a1.07,1.07,0,0,1-.08.41,1,1,0,0,1-.55.55,1.07,1.07,0,0,1-.41.08H74a3.46,3.46,0,0,1-.61-.07,2.73,2.73,0,0,1-.65-.21,3,3,0,0,1-.61-.37,2.63,2.63,0,0,1-.51-.54,2.68,2.68,0,0,1-.36-.74,3.11,3.11,0,0,1-.14-1V2.87a2.72,2.72,0,0,1,.07-.61,2.73,2.73,0,0,1,.21-.65A3,3,0,0,1,71.81,1a2.49,2.49,0,0,1,.55-.52A2.67,2.67,0,0,1,73.1.13,3,3,0,0,1,74,0h8.34V2H74a.79.79,0,0,0-.61.22.82.82,0,0,0-.22.63V8.43a.76.76,0,0,0,.83.83h6.39V6.68H75V4.62h6.47a.91.91,0,0,1,.41.08,1,1,0,0,1,.33.22,1.19,1.19,0,0,1,.22.33,1.06,1.06,0,0,1,.08.4Z" fill="#3d5680"/><path d="M107.52,11.31h2V8.53h7.21v2.78h2.06V5.65a6,6,0,0,0-.43-2.28,5.27,5.27,0,0,0-1.18-1.79,5.49,5.49,0,0,0-1.8-1.17A5.89,5.89,0,0,0,113.18,0h-4.63a1.1,1.1,0,0,0-.4.08,1.06,1.06,0,0,0-.33.22,1.19,1.19,0,0,0-.22.33,1.11,1.11,0,0,0-.08.41Zm9.26-4.83h-7.21V2h3.61l.4,0a4.79,4.79,0,0,1,.7.14,4.62,4.62,0,0,1,.84.34,3,3,0,0,1,.81.63,3.13,3.13,0,0,1,.61,1,4,4,0,0,1,.24,1.46Z" fill="#3d5680"/><path d="M136.37.61a1.12,1.12,0,0,1,.07.58,1,1,0,0,1-.26.51l-6.77,7.56h6.94v2.05H127.1a1,1,0,0,1-.55-.17,1.06,1.06,0,0,1-.39-.45.93.93,0,0,1-.08-.57,1,1,0,0,1,.25-.53L133.11,2h-7V0h9.27a1,1,0,0,1,.55.17A1.07,1.07,0,0,1,136.37.61Z" fill="#3d5680"/><path d="M100.06,11.31H92.44a2.78,2.78,0,0,1-2.77-2.78V0h2V9.26h8.34Z" fill="#3d5680"/><path d="M46.14,2.46v.77a3.5,3.5,0,0,1-3.5,3.5H38.47l4.89,4.56H40.55L37.13,8.07a4.52,4.52,0,0,1-1.43-3.3h7A1.31,1.31,0,0,0,44,3.47V2.37a.29.29,0,0,0-.28-.28h-8V0h8A2.47,2.47,0,0,1,46.14,2.46Z" fill="#ed2024"/><path d="M61.75,16.22H57.32l-2-2.09h2.6A4.31,4.31,0,0,1,61,15.44Z" fill="#3d5680"/><polygon points="55.87 16.22 51.45 16.21 49.43 14.12 53.86 14.12 55.87 16.22" fill="#3d5680"/><polygon points="151.34 12.48 150.7 13.1 41.96 13.1 41.31 12.48 151.34 12.48" fill="#3d5680"/><polygon points="151.34 12.48 150.7 13.1 41.96 13.1 41.31 12.48 151.34 12.48" fill="#3d5680"/><polygon points="151.34 12.48 150.7 13.1 41.96 13.1 41.31 12.48 151.34 12.48" fill="#3d5680"/><path d="M47.11,18.13l3.81,3.81a8.36,8.36,0,0,0,4.54,1.6H67.19c0-.63-2-2.11-4.27-2.29H54.66A4.64,4.64,0,0,1,52.1,20l-.51-.46a5,5,0,0,0-3.51-1.42Z" fill="#3d5680"/><path d="M20.09,8.23a1.13,1.13,0,0,1-.34.83,1.17,1.17,0,0,1-.83.34H5.72l6.17,10.15a8.23,8.23,0,0,0,7,3.95h3.63l-4.31-7.08a8.21,8.21,0,0,0,8.11-4.67A8.2,8.2,0,0,0,20.09,8.23Z" fill="#3d5680" fill-rule="evenodd"/><path d="M18.92,7.05a1.16,1.16,0,0,1,1.17,1.18,8.2,8.2,0,0,1,6.26,3.52A8.22,8.22,0,0,0,18.92,7.05Z" fill="#1d3351" fill-rule="evenodd"/><path d="M23.47,1.37H.83L0,0H18.92A8.12,8.12,0,0,1,23.47,1.37Z" fill="#ee2524" fill-rule="evenodd"/><path d="M26.35,11.75a8.22,8.22,0,0,0-7.43-4.7h-10A8.24,8.24,0,0,1,2,3.26L1.2,2H24.26a8.34,8.34,0,0,1,1.6,1.84A8.23,8.23,0,0,1,26.35,11.75Z" fill="#ee2524" fill-rule="evenodd"/><path d="M24.56,2.25H1.37L.83,1.37H23.47A8.76,8.76,0,0,1,24.56,2.25Z" fill="#fff"/><rect x="30.94" width="0.7" height="23.5" fill="#3d5680"/></svg>